<svg width="324.9820983886719px" height="124.22857666015625px" xmlns="http://www.w3.org/2000/svg" viewBox="87.50895080566406 12.885711669921875 324.9820983886719 124.22857666015625" style="background: rgba(0, 0, 0, 0);" preserveAspectRatio="xMidYMid"><defs><filter id="editing-hole" x="-100%" y="-100%" width="300%" height="300%"><feFlood flood-color="#000" result="black"></feFlood><feMorphology operator="dilate" radius="2" in="SourceGraphic" result="erode"></feMorphology><feGaussianBlur in="erode" stdDeviation="4" result="blur"></feGaussianBlur><feOffset in="blur" dx="2" dy="2" result="offset"></feOffset><feComposite operator="atop" in="offset" in2="black" result="merge"></feComposite><feComposite operator="in" in="merge" in2="SourceGraphic" result="inner-shadow"></feComposite></filter></defs><g filter="url(#editing-hole)"><g transform="translate(138.19996738433838, 96.76499557495117)"><path d="M4.47-6.16L25.22-6.16L25.22-13.88L10.63-13.88L10.63-13.88Q9.34-13.88 8.22-14.36L8.22-14.36L8.22-14.36Q7.09-14.84 6.27-15.67L6.27-15.67L6.27-15.67Q5.44-16.50 4.95-17.63L4.95-17.63L4.95-17.63Q4.47-18.75 4.47-20.03L4.47-20.03L4.47-27.13L4.47-27.13Q4.47-28.41 4.95-29.53L4.95-29.53L4.95-29.53Q5.44-30.66 6.27-31.48L6.27-31.48L6.27-31.48Q7.09-32.31 8.22-32.80L8.22-32.80L8.22-32.80Q9.34-33.28 10.63-33.28L10.63-33.28L30.09-33.28L30.09-27.13L10.63-27.13L10.63-20.03L25.22-20.03L25.22-20.03Q26.50-20.03 27.61-19.55L27.61-19.55L27.61-19.55Q28.72-19.06 29.56-18.23L29.56-18.23L29.56-18.23Q30.41-17.41 30.89-16.28L30.89-16.28L30.89-16.28Q31.38-15.16 31.38-13.88L31.38-13.88L31.38-6.16L31.38-6.16Q31.38-4.88 30.89-3.75L30.89-3.75L30.89-3.75Q30.41-2.63 29.56-1.80L29.56-1.80L29.56-1.80Q28.72-0.97 27.61-0.48L27.61-0.48L27.61-0.48Q26.50 0 25.22 0L25.22 0L4.47 0L4.47-6.16ZM39.03-27.13L39.03-33.28L47.16-33.28L47.16-43.53L53.31-43.53L53.31-33.28L64.25-33.28L64.25-27.13L53.31-27.13L53.31-6.16L64.25-6.16L64.25 0L53.31 0L53.31 0Q52.06 0 50.94-0.48L50.94-0.48L50.94-0.48Q49.81-0.97 48.97-1.80L48.97-1.80L48.97-1.80Q48.13-2.63 47.64-3.75L47.64-3.75L47.64-3.75Q47.16-4.88 47.16-6.16L47.16-6.16L47.16-27.13L39.03-27.13ZM103.28-27.13L103.28-6.16L103.28-6.16Q103.28-4.88 102.80-3.75L102.80-3.75L102.80-3.75Q102.31-2.63 101.48-1.80L101.48-1.80L101.48-1.80Q100.66-0.97 99.55-0.48L99.55-0.48L99.55-0.48Q98.44 0 97.16 0L97.16 0L80.63 0L80.63 0Q79.38 0 78.25-0.48L78.25-0.48L78.25-0.48Q77.13-0.97 76.30-1.80L76.30-1.80L76.30-1.80Q75.47-2.63 74.98-3.75L74.98-3.75L74.98-3.75Q74.50-4.88 74.50-6.16L74.50-6.16L74.50-27.13L74.50-27.13Q74.50-28.41 74.98-29.53L74.98-29.53L74.98-29.53Q75.47-30.66 76.30-31.48L76.30-31.48L76.30-31.48Q77.13-32.31 78.25-32.80L78.25-32.80L78.25-32.80Q79.38-33.28 80.63-33.28L80.63-33.28L97.16-33.28L97.16-33.28Q98.44-33.28 99.55-32.80L99.55-32.80L99.55-32.80Q100.66-32.31 101.48-31.48L101.48-31.48L101.48-31.48Q102.31-30.66 102.80-29.53L102.80-29.53L102.80-29.53Q103.28-28.41 103.28-27.13L103.28-27.13ZM97.16-27.13L80.63-27.13L80.63-6.16L97.16-6.16L97.16-27.13ZM135.53-27.13L119.66-27.13L119.66-6.16L135.53-6.16L135.53-11.78L141.69-11.78L141.69-6.16L141.69-6.16Q141.69-4.88 141.20-3.75L141.20-3.75L141.20-3.75Q140.72-2.63 139.89-1.80L139.89-1.80L139.89-1.80Q139.06-0.97 137.94-0.48L137.94-0.48L137.94-0.48Q136.81 0 135.53 0L135.53 0L119.66 0L119.66 0Q118.41 0 117.28-0.48L117.28-0.48L117.28-0.48Q116.16-0.97 115.33-1.80L115.33-1.80L115.33-1.80Q114.50-2.63 114.02-3.75L114.02-3.75L114.02-3.75Q113.53-4.88 113.53-6.16L113.53-6.16L113.53-27.13L113.53-27.13Q113.53-28.41 114.02-29.53L114.02-29.53L114.02-29.53Q114.50-30.66 115.33-31.48L115.33-31.48L115.33-31.48Q116.16-32.31 117.28-32.80L117.28-32.80L117.28-32.80Q118.41-33.28 119.66-33.28L119.66-33.28L135.53-33.28L135.53-33.28Q136.81-33.28 137.94-32.80L137.94-32.80L137.94-32.80Q139.06-32.31 139.89-31.48L139.89-31.48L139.89-31.48Q140.72-30.66 141.20-29.53L141.20-29.53L141.20-29.53Q141.69-28.41 141.69-27.13L141.69-27.13L141.69-21.50L135.53-21.50L135.53-27.13ZM173.94-27.13L158.06-27.13L158.06-6.16L173.94-6.16L173.94-11.78L180.09-11.78L180.09-6.16L180.09-6.16Q180.09-4.88 179.61-3.75L179.61-3.75L179.61-3.75Q179.13-2.63 178.30-1.80L178.30-1.80L178.30-1.80Q177.47-0.97 176.34-0.48L176.34-0.48L176.34-0.48Q175.22 0 173.94 0L173.94 0L158.06 0L158.06 0Q156.81 0 155.69-0.48L155.69-0.48L155.69-0.48Q154.56-0.97 153.73-1.80L153.73-1.80L153.73-1.80Q152.91-2.63 152.42-3.75L152.42-3.75L152.42-3.75Q151.94-4.88 151.94-6.16L151.94-6.16L151.94-27.13L151.94-27.13Q151.94-28.41 152.42-29.53L152.42-29.53L152.42-29.53Q152.91-30.66 153.73-31.48L153.73-31.48L153.73-31.48Q154.56-32.31 155.69-32.80L155.69-32.80L155.69-32.80Q156.81-33.28 158.06-33.28L158.06-33.28L173.94-33.28L173.94-33.28Q175.22-33.28 176.34-32.80L176.34-32.80L176.34-32.80Q177.47-32.31 178.30-31.48L178.30-31.48L178.30-31.48Q179.13-30.66 179.61-29.53L179.61-29.53L179.61-29.53Q180.09-28.41 180.09-27.13L180.09-27.13L180.09-21.50L173.94-21.50L173.94-27.13ZM219.13-27.13L219.13-6.16L219.13-6.16Q219.13-4.88 218.64-3.75L218.64-3.75L218.64-3.75Q218.16-2.63 217.33-1.80L217.33-1.80L217.33-1.80Q216.50-0.97 215.39-0.48L215.39-0.48L215.39-0.48Q214.28 0 213 0L213 0L196.47 0L196.47 0Q195.22 0 194.09-0.48L194.09-0.48L194.09-0.48Q192.97-0.97 192.14-1.80L192.14-1.80L192.14-1.80Q191.31-2.63 190.83-3.75L190.83-3.75L190.83-3.75Q190.34-4.88 190.34-6.16L190.34-6.16L190.34-27.13L190.34-27.13Q190.34-28.41 190.83-29.53L190.83-29.53L190.83-29.53Q191.31-30.66 192.14-31.48L192.14-31.48L192.14-31.48Q192.97-32.31 194.09-32.80L194.09-32.80L194.09-32.80Q195.22-33.28 196.47-33.28L196.47-33.28L213-33.28L213-33.28Q214.28-33.28 215.39-32.80L215.39-32.80L215.39-32.80Q216.50-32.31 217.33-31.48L217.33-31.48L217.33-31.48Q218.16-30.66 218.64-29.53L218.64-29.53L218.64-29.53Q219.13-28.41 219.13-27.13L219.13-27.13ZM213-27.13L196.47-27.13L196.47-6.16L213-6.16L213-27.13Z" fill="#ccc"></path></g></g><style>text {
  font-size: 64px;
  font-family: Arial Black;
  dominant-baseline: central;
  text-anchor: middle;
}</style></svg>